<svg xmlns="http://www.w3.org/2000/svg" width="30" height="30" viewBox="0 0 30 30">
  <defs>
    <style>
      .cls-1 {
        fill: #9ca2c8;
      }
    </style>
  </defs>
  <path id="Icon_awesome-phone-square-alt" data-name="Icon awesome-phone-square-alt" class="cls-1" d="M26.786,2.25H3.214A3.214,3.214,0,0,0,0,5.464V29.036A3.214,3.214,0,0,0,3.214,32.25H26.786A3.214,3.214,0,0,0,30,29.036V5.464A3.214,3.214,0,0,0,26.786,2.25Zm-1.1,20.583-1,4.353a1,1,0,0,1-.978.779A19.421,19.421,0,0,1,4.286,8.545a1.051,1.051,0,0,1,.779-.978l4.353-1a1.221,1.221,0,0,1,.226-.026,1.09,1.09,0,0,1,.923.609l2.009,4.687a1.2,1.2,0,0,1,.081.4,1.138,1.138,0,0,1-.368.777L9.751,15.081A15.53,15.53,0,0,0,17.169,22.5l2.076-2.537a1.138,1.138,0,0,1,.777-.368,1.2,1.2,0,0,1,.4.081l4.687,2.009a1.088,1.088,0,0,1,.609.923,1.166,1.166,0,0,1-.026.226Z" transform="translate(0 -2.25)"/>
</svg>
